<svg width="240" height="190" viewBox="0 0 240 190" fill="none" xmlns="http://www.w3.org/2000/svg">
<rect width="240" height="189.672" fill="white"/>
<path d="M67.5091 10.0031H66.7891V2.84312H67.5191L71.4591 8.80313V2.84312H72.1691V10.0031H71.4591L67.5091 4.04313V10.0031Z" fill="#6E6D97"/>
<path d="M77.488 5.16313H78.098V10.0031H77.468L77.398 9.01312C77.048 9.74313 76.388 10.1231 75.568 10.1231C74.138 10.1231 73.328 9.02313 73.328 7.56313C73.328 6.10313 74.198 5.03313 75.598 5.03313C76.378 5.03313 77.088 5.37312 77.428 6.17313L77.488 5.16313ZM77.368 7.58313C77.368 6.46313 76.768 5.66313 75.708 5.66313C74.648 5.66313 74.028 6.46313 74.028 7.58313C74.028 8.70313 74.638 9.50313 75.688 9.50313C76.748 9.50313 77.368 8.70313 77.368 7.58313Z" fill="#6E6D97"/>
<path d="M80.1271 10.0031H79.4371V5.16313H80.0371L80.1171 5.85313C80.3571 5.34313 80.8971 5.03313 81.5771 5.03313C82.3371 5.03313 82.9071 5.43312 83.1371 6.06312C83.3571 5.43312 83.9471 5.03313 84.7271 5.03313C85.7771 5.03313 86.4671 5.71312 86.4671 6.83313V10.0031H85.7971V6.97312C85.7971 6.14312 85.3371 5.65312 84.5971 5.65312C83.7871 5.65312 83.3071 6.26313 83.3071 7.01312V10.0031H82.6271V6.96313C82.6271 6.14313 82.1571 5.66313 81.4271 5.66313C80.6171 5.66313 80.1271 6.26313 80.1271 7.00313V10.0031Z" fill="#6E6D97"/>
<path d="M91.5751 5.16313H92.1851V10.0031H91.5551L91.4851 9.01312C91.1351 9.74313 90.4751 10.1231 89.6551 10.1231C88.2251 10.1231 87.4151 9.02313 87.4151 7.56313C87.4151 6.10313 88.2851 5.03313 89.6851 5.03313C90.4651 5.03313 91.1751 5.37312 91.5151 6.17313L91.5751 5.16313ZM91.4551 7.58313C91.4551 6.46313 90.8551 5.66313 89.7951 5.66313C88.7351 5.66313 88.1151 6.46313 88.1151 7.58313C88.1151 8.70313 88.7251 9.50313 89.7751 9.50313C90.8351 9.50313 91.4551 8.70313 91.4551 7.58313Z" fill="#6E6D97"/>
<path d="M93.0166 8.64313H93.6766C93.6766 9.20313 94.0966 9.55313 94.7766 9.55313C95.5266 9.55313 95.9666 9.23313 95.9666 8.71313C95.9666 8.31313 95.7666 8.08313 95.1966 7.94313L94.3666 7.73313C93.5266 7.52313 93.1166 7.08312 93.1166 6.42313C93.1166 5.57312 93.8266 5.03313 94.8666 5.03313C95.8866 5.03313 96.5466 5.59312 96.5766 6.49312H95.9066C95.8866 5.93313 95.4966 5.60312 94.8466 5.60312C94.1666 5.60312 93.7866 5.89313 93.7866 6.41313C93.7866 6.78313 94.0466 7.04312 94.5766 7.17312L95.4066 7.38312C96.2466 7.59312 96.6266 7.98312 96.6266 8.68313C96.6266 9.55313 95.8866 10.1231 94.7866 10.1231C93.6966 10.1231 93.0166 9.54313 93.0166 8.64313Z" fill="#6E6D97"/>
<path d="M98.7725 10.0031H98.0925V5.74312H97.1225V5.16313H98.0925V3.63312H98.7725V5.16313H99.7425V5.74312H98.7725V10.0031Z" fill="#6E6D97"/>
<path d="M102.522 10.1231C101.102 10.1231 100.152 9.10313 100.152 7.58313C100.152 6.07313 101.092 5.03313 102.472 5.03313C103.782 5.03313 104.672 5.96313 104.672 7.33313V7.67313H100.822C100.872 8.85313 101.492 9.53313 102.532 9.53313C103.322 9.53313 103.832 9.19313 104.012 8.55312H104.672C104.412 9.57313 103.662 10.1231 102.522 10.1231ZM102.472 5.62313C101.562 5.62313 100.962 6.22312 100.842 7.17312H103.982C103.982 6.24312 103.382 5.62313 102.472 5.62313Z" fill="#6E6D97"/>
<path d="M106.593 9.66313C106.593 10.2831 106.113 10.8231 105.493 10.9131V10.5431C105.853 10.4831 106.113 10.2231 106.113 9.94313C106.053 9.98313 105.973 10.0131 105.853 10.0131C105.573 10.0131 105.333 9.81313 105.333 9.47312C105.333 9.12312 105.573 8.87313 105.923 8.87313C106.283 8.87313 106.593 9.16312 106.593 9.66313Z" fill="#6E6D97"/>
<path d="M111.433 2.84312V10.0031H110.713V2.84312H111.433Z" fill="#6E6D97"/>
<path d="M114.044 3.48313C114.044 4.11312 113.584 4.64313 112.964 4.73313V4.36313C113.314 4.29312 113.574 4.04313 113.574 3.76313C113.514 3.80313 113.424 3.82312 113.304 3.82312C113.044 3.82312 112.814 3.63312 112.814 3.29313C112.814 2.95312 113.054 2.70312 113.404 2.70312C113.744 2.70312 114.044 2.99312 114.044 3.48313Z" fill="#6E6D97"/>
<path d="M115.965 10.0031H115.275V5.16313H115.875L115.955 5.85313C116.195 5.34313 116.735 5.03313 117.415 5.03313C118.175 5.03313 118.745 5.43312 118.975 6.06312C119.195 5.43312 119.785 5.03313 120.565 5.03313C121.615 5.03313 122.305 5.71312 122.305 6.83313V10.0031H121.635V6.97312C121.635 6.14312 121.175 5.65312 120.435 5.65312C119.625 5.65312 119.145 6.26313 119.145 7.01312V10.0031H118.465V6.96313C118.465 6.14313 117.995 5.66313 117.265 5.66313C116.455 5.66313 115.965 6.26313 115.965 7.00313V10.0031Z" fill="#6E6D97"/>
<path d="M125.987 4.70312C125.987 3.50312 126.947 2.71312 128.387 2.71312C129.677 2.71312 130.527 3.43313 130.637 4.63313H129.907C129.827 3.82312 129.277 3.36312 128.377 3.36312C127.367 3.36312 126.707 3.88312 126.707 4.69313C126.707 5.32312 127.077 5.72312 127.827 5.91313L129.057 6.21313C130.177 6.48313 130.757 7.12312 130.757 8.09312C130.757 9.33312 129.797 10.1231 128.317 10.1231C126.927 10.1231 125.987 9.39312 125.897 8.22312H126.637C126.677 8.97312 127.337 9.46313 128.317 9.46313C129.367 9.46313 130.037 8.95313 130.037 8.13313C130.037 7.49313 129.677 7.07313 128.907 6.89313L127.697 6.59312C126.577 6.32312 125.987 5.68313 125.987 4.70312Z" fill="#6E6D97"/>
<path d="M135.622 5.16313H136.232V10.0031H135.602L135.532 9.01312C135.182 9.74313 134.522 10.1231 133.702 10.1231C132.272 10.1231 131.462 9.02313 131.462 7.56313C131.462 6.10313 132.332 5.03313 133.732 5.03313C134.512 5.03313 135.222 5.37312 135.562 6.17313L135.622 5.16313ZM135.502 7.58313C135.502 6.46313 134.902 5.66313 133.842 5.66313C132.782 5.66313 132.162 6.46313 132.162 7.58313C132.162 8.70313 132.772 9.50313 133.822 9.50313C134.882 9.50313 135.502 8.70313 135.502 7.58313Z" fill="#6E6D97"/>
<path d="M138.261 9.99312H137.571V2.71312H138.261V6.00313C138.571 5.42312 139.161 5.03313 139.971 5.03313C141.241 5.03313 141.811 5.82313 141.811 7.04313V10.0031H141.121V7.19312C141.121 6.06312 140.591 5.66313 139.841 5.66313C138.801 5.66313 138.261 6.43313 138.261 7.36313V9.99312Z" fill="#6E6D97"/>
<path d="M143.426 3.83312C143.146 3.83312 142.916 3.60312 142.916 3.32312C142.916 3.04312 143.146 2.80312 143.426 2.80312C143.706 2.80312 143.946 3.04312 143.946 3.32312C143.946 3.60312 143.706 3.83312 143.426 3.83312ZM143.086 10.0031V5.16313H143.776V10.0031H143.086Z" fill="#6E6D97"/>
<path d="M145.835 10.0031H145.145V2.71312H145.835V10.0031Z" fill="#6E6D97"/>
<path d="M149.596 4.70312C149.596 3.50312 150.556 2.71312 151.996 2.71312C153.286 2.71312 154.136 3.43313 154.246 4.63313H153.516C153.436 3.82312 152.886 3.36312 151.986 3.36312C150.976 3.36312 150.316 3.88312 150.316 4.69313C150.316 5.32312 150.686 5.72312 151.436 5.91313L152.666 6.21313C153.786 6.48313 154.366 7.12312 154.366 8.09312C154.366 9.33312 153.406 10.1231 151.926 10.1231C150.536 10.1231 149.596 9.39312 149.506 8.22312H150.246C150.286 8.97312 150.946 9.46313 151.926 9.46313C152.976 9.46313 153.646 8.95313 153.646 8.13313C153.646 7.49313 153.286 7.07313 152.516 6.89313L151.306 6.59312C150.186 6.32312 149.596 5.68313 149.596 4.70312Z" fill="#6E6D97"/>
<path d="M155.751 3.83312C155.471 3.83312 155.241 3.60312 155.241 3.32312C155.241 3.04312 155.471 2.80312 155.751 2.80312C156.031 2.80312 156.271 3.04312 156.271 3.32312C156.271 3.60312 156.031 3.83312 155.751 3.83312ZM155.411 10.0031V5.16313H156.101V10.0031H155.411Z" fill="#6E6D97"/>
<path d="M158.129 10.0031H157.439V5.16313H158.039L158.139 6.00313C158.459 5.38313 159.099 5.03313 159.799 5.03313C161.129 5.03313 161.679 5.82313 161.679 7.04313V10.0031H160.989V7.19312C160.989 6.06312 160.479 5.66313 159.679 5.66313C158.689 5.66313 158.129 6.38313 158.129 7.47312V10.0031Z" fill="#6E6D97"/>
<path d="M163.645 9.99312H162.955V2.71312H163.645V6.00313C163.955 5.42312 164.545 5.03313 165.355 5.03313C166.625 5.03313 167.195 5.82313 167.195 7.04313V10.0031H166.505V7.19312C166.505 6.06312 165.975 5.66313 165.225 5.66313C164.185 5.66313 163.645 6.43313 163.645 7.36313V9.99312Z" fill="#6E6D97"/>
<path d="M172.29 5.16313H172.9V10.0031H172.27L172.2 9.01312C171.85 9.74313 171.19 10.1231 170.37 10.1231C168.94 10.1231 168.13 9.02313 168.13 7.56313C168.13 6.10313 169 5.03313 170.4 5.03313C171.18 5.03313 171.89 5.37312 172.23 6.17313L172.29 5.16313ZM172.17 7.58313C172.17 6.46313 171.57 5.66313 170.51 5.66313C169.45 5.66313 168.83 6.46313 168.83 7.58313C168.83 8.70313 169.44 9.50313 170.49 9.50313C171.55 9.50313 172.17 8.70313 172.17 7.58313Z" fill="#6E6D97"/>
<path d="M32.9285 49.3131H23.0294V64.8074H15.1593V19.8618H32.9285C41.9668 19.8618 47.8079 25.7644 47.8079 34.5567C47.8079 43.2261 41.9053 49.3131 32.9285 49.3131ZM31.3914 26.8711H23.0294V42.3038H31.2684C36.6791 42.3038 39.5689 39.4141 39.5689 34.4952C39.5689 29.5764 36.6176 26.8711 31.3914 26.8711Z" fill="#0D0B36"/>
<path d="M71.152 34.3108V41.2586H68.3852C62.9745 41.2586 59.5928 44.1484 59.5928 50.051V64.8074H52.0917V34.4952H59.1624L59.5928 38.9222C60.884 35.9094 63.7738 33.8804 67.8318 33.8804C68.8771 33.8804 69.9223 34.0034 71.152 34.3108Z" fill="#0D0B36"/>
<path d="M72.1958 49.5591C72.1958 40.0904 79.0207 33.573 88.4279 33.573C97.8351 33.573 104.66 40.0904 104.66 49.5591C104.66 59.0278 97.8351 65.5452 88.4279 65.5452C79.0207 65.5452 72.1958 59.0278 72.1958 49.5591ZM79.697 49.5591C79.697 55.0927 83.2631 58.8433 88.4279 58.8433C93.5926 58.8433 97.1588 55.0927 97.1588 49.5591C97.1588 44.0254 93.5926 40.2748 88.4279 40.2748C83.2631 40.2748 79.697 44.0254 79.697 49.5591Z" fill="#0D0B36"/>
<path d="M121.857 65.6067C113.065 65.6067 107.593 59.1508 107.593 49.7435C107.593 40.2748 113.127 33.5115 122.288 33.5115C126.53 33.5115 130.281 35.2946 132.187 38.3073V19.0625H139.627V64.8074H132.74L132.248 60.073C130.404 63.5777 126.469 65.6067 121.857 65.6067ZM123.518 58.7204C128.744 58.7204 132.126 54.9698 132.126 49.4976C132.126 44.0254 128.744 40.2134 123.518 40.2134C118.291 40.2134 115.094 44.0869 115.094 49.4976C115.094 54.9083 118.291 58.7204 123.518 58.7204Z" fill="#0D0B36"/>
<path d="M166.812 34.4338H174.313V64.8074H167.365L166.812 60.7494C164.967 63.6392 161.032 65.6067 156.974 65.6067C149.965 65.6067 145.845 60.8723 145.845 53.4326V34.4338H153.346V50.7888C153.346 56.5684 155.621 58.9048 159.802 58.9048C164.537 58.9048 166.812 56.138 166.812 50.3584V34.4338Z" fill="#0D0B36"/>
<path d="M178.447 49.5591C178.447 40.1519 184.657 33.5115 193.634 33.5115C201.935 33.5115 207.591 38.1229 208.39 45.4396H200.889C200.029 41.9964 197.508 40.2134 193.942 40.2134C189.146 40.2134 185.948 43.841 185.948 49.5591C185.948 55.2772 188.9 58.8433 193.696 58.8433C197.446 58.8433 200.09 56.9988 200.889 53.6786H208.452C207.53 60.7494 201.627 65.6067 193.696 65.6067C184.473 65.6067 178.447 59.2122 178.447 49.5591Z" fill="#0D0B36"/>
<path d="M223.135 64.8074H215.634V40.7052H209.793V34.4338H215.634V24.9651H223.135V34.4338H229.037V40.7052H223.135V64.8074Z" fill="#0D0B36"/>
<path d="M16.4911 125.607C7.69873 125.607 2.22656 119.151 2.22656 109.744C2.22656 100.275 7.76022 93.5115 16.9215 93.5115C21.164 93.5115 24.9145 95.2946 26.8206 98.3073V79.0625H34.2603V124.807H27.3739L26.8821 120.073C25.0375 123.578 21.1025 125.607 16.4911 125.607ZM18.1512 118.72C23.3774 118.72 26.7591 114.97 26.7591 109.498C26.7591 104.025 23.3774 100.213 18.1512 100.213C12.925 100.213 9.72774 104.087 9.72774 109.498C9.72774 114.908 12.925 118.72 18.1512 118.72Z" fill="#0D0B36"/>
<path d="M54.436 125.607C45.3977 125.607 39.0648 119.028 39.0648 109.621C39.0648 100.09 45.2747 93.5115 54.1901 93.5115C63.2899 93.5115 69.0695 99.5985 69.0695 109.067V111.342L46.197 111.404C46.7504 116.753 49.5787 119.458 54.559 119.458C58.6785 119.458 61.3838 117.86 62.2446 114.97H69.1924C67.9012 121.61 62.3676 125.607 54.436 125.607ZM54.2516 99.66C49.8246 99.66 47.1193 102.058 46.3815 106.608H61.6298C61.6298 102.427 58.74 99.66 54.2516 99.66Z" fill="#0D0B36"/>
<path d="M71.5068 115.585H78.639C78.7005 118.228 80.668 119.889 84.1112 119.889C87.6159 119.889 89.5219 118.474 89.5219 116.261C89.5219 114.724 88.7226 113.617 86.0172 113.002L80.5451 111.711C75.0729 110.481 72.429 107.899 72.429 103.042C72.429 97.0776 77.4708 93.5115 84.4801 93.5115C91.305 93.5115 95.9163 97.4465 95.9778 103.349H88.8456C88.7841 100.767 87.0625 99.1066 84.1727 99.1066C81.2214 99.1066 79.4998 100.459 79.4998 102.734C79.4998 104.456 80.8525 105.563 83.4349 106.177L88.907 107.469C94.0103 108.637 96.5927 110.973 96.5927 115.646C96.5927 121.795 91.3664 125.607 83.8653 125.607C76.3026 125.607 71.5068 121.549 71.5068 115.585Z" fill="#0D0B36"/>
<path d="M104.825 88.3467C102.243 88.3467 100.214 86.3177 100.214 83.7968C100.214 81.276 102.243 79.3084 104.825 79.3084C107.284 79.3084 109.313 81.276 109.313 83.7968C109.313 86.3177 107.284 88.3467 104.825 88.3467ZM101.074 124.807V94.4338H108.576V124.807H101.074Z" fill="#0D0B36"/>
<path d="M113.374 108.944C113.374 100.09 119.154 93.45 127.823 93.45C132.373 93.45 135.939 95.356 137.722 98.6147L138.153 94.4338H145.101V123.27C145.101 133.415 139.014 139.748 129.176 139.748C120.445 139.748 114.481 134.768 113.559 126.652H121.06C121.552 130.587 124.565 132.923 129.176 132.923C134.341 132.923 137.661 129.665 137.661 124.623V119.581C135.755 122.409 132.004 124.193 127.639 124.193C119.031 124.193 113.374 117.737 113.374 108.944ZM120.937 108.76C120.937 113.863 124.196 117.675 129.114 117.675C134.279 117.675 137.476 114.047 137.476 108.76C137.476 103.595 134.341 100.029 129.114 100.029C124.134 100.029 120.937 103.779 120.937 108.76Z" fill="#0D0B36"/>
<path d="M159.135 124.807H151.634V94.4338H158.582L159.196 98.3688C161.102 95.2946 164.792 93.5115 168.911 93.5115C176.535 93.5115 180.47 98.2458 180.47 106.116V124.807H172.969V107.899C172.969 102.796 170.448 100.336 166.575 100.336C161.963 100.336 159.135 103.534 159.135 108.452V124.807Z" fill="#0D0B36"/>
<path d="M200.199 125.607C191.161 125.607 184.828 119.028 184.828 109.621C184.828 100.09 191.038 93.5115 199.953 93.5115C209.053 93.5115 214.832 99.5985 214.832 109.067V111.342L191.96 111.404C192.513 116.753 195.342 119.458 200.322 119.458C204.441 119.458 207.147 117.86 208.007 114.97H214.955C213.664 121.61 208.13 125.607 200.199 125.607ZM200.014 99.66C195.587 99.66 192.882 102.058 192.144 106.608H207.393C207.393 102.427 204.503 99.66 200.014 99.66Z" fill="#0D0B36"/>
<path d="M238.666 94.3108V101.259H235.9C230.489 101.259 227.107 104.148 227.107 110.051V124.807H219.606V94.4952H226.677L227.107 98.9222C228.398 95.9094 231.288 93.8804 235.346 93.8804C236.391 93.8804 237.437 94.0034 238.666 94.3108Z" fill="#0D0B36"/>
<path d="M127.475 136.295L127.628 136.427L128.212 136.927L127.987 137.662L126.18 143.589C127.439 142.41 128.605 141.936 129.605 141.936C129.914 141.936 130.297 141.983 130.664 142.177C131.063 142.387 131.363 142.73 131.523 143.165C131.802 143.92 131.612 144.816 131.306 145.677L131.304 145.682L129.692 150.142L130.363 150.629L130.604 150.805L131.51 151.463L130.896 152.398C130.225 153.423 129.533 154.217 128.854 154.767C128.199 155.296 127.436 155.694 126.645 155.694C126.33 155.694 125.918 155.639 125.536 155.392C125.122 155.124 124.881 154.721 124.777 154.292C124.601 153.559 124.81 152.672 125.144 151.75L126.888 146.869C126.803 146.976 126.716 147.089 126.627 147.21C125.554 148.662 124.227 151.056 122.779 154.73L122.486 155.475H118.603L119.055 154.002C118.017 155.075 116.925 155.694 115.775 155.694C114.987 155.694 114.091 155.37 113.653 154.424C113.562 154.227 113.501 154.02 113.463 153.806C113.128 154.188 112.793 154.513 112.461 154.778C111.802 155.305 111.041 155.694 110.265 155.694C109.95 155.694 109.54 155.639 109.158 155.393C108.746 155.126 108.503 154.726 108.397 154.3C108.216 153.57 108.416 152.684 108.738 151.762L108.742 151.753L110.273 147.478L109.982 147.266C109.63 148.567 109.044 150.013 108.281 151.309C107.021 153.45 104.973 155.694 102.209 155.694C101.739 155.694 101.241 155.608 100.793 155.35C100.383 155.113 100.079 154.769 99.8877 154.356C99.8821 154.361 99.8776 154.367 99.8721 154.372C98.9381 155.172 97.8755 155.694 96.7461 155.694C96.2837 155.694 95.7637 155.612 95.3057 155.312C94.8153 154.99 94.5367 154.513 94.417 154.003C94.3052 153.526 94.328 153.016 94.4062 152.521C94.4863 152.017 94.6368 151.453 94.8398 150.838L95.9316 147.533L95.1992 147.001L94.958 146.826L94.0527 146.167L94.666 145.231C95.3357 144.209 96.0198 143.418 96.6885 142.869C97.3299 142.343 98.0844 141.936 98.874 141.936C99.2271 141.936 99.6741 142.006 100.07 142.301C100.489 142.612 100.685 143.05 100.758 143.454C100.884 144.154 100.681 144.999 100.409 145.838L98.6328 151.387L98.6338 151.388C98.5634 151.608 98.504 151.807 98.4551 151.983C98.8896 151.55 99.3739 150.914 99.8516 150.126C100.841 148.494 101.698 146.398 102.041 144.582C102.164 143.924 102.327 143.299 102.634 142.828C102.804 142.567 103.037 142.324 103.354 142.155C103.669 141.987 103.99 141.936 104.271 141.936C104.925 141.936 105.578 142.242 105.926 142.904C105.942 142.935 105.957 142.966 105.971 142.997C106.345 142.342 107.07 141.936 107.847 141.936C108.99 141.936 109.842 142.703 110.188 143.768C110.507 143.41 110.825 143.104 111.141 142.852C111.68 142.42 112.287 142.081 112.915 141.972C112.744 141.83 112.596 141.662 112.482 141.473C112.165 140.944 112.109 140.307 112.267 139.715L112.276 139.68C112.446 139.115 112.785 138.635 113.192 138.291C113.59 137.955 114.14 137.68 114.763 137.68L114.894 137.684C115.544 137.727 116.093 138.089 116.401 138.626C116.71 139.163 116.74 139.793 116.577 140.363L116.578 140.364C116.577 140.367 116.576 140.37 116.575 140.373C116.573 140.382 116.571 140.391 116.568 140.399L116.567 140.398C116.314 141.299 115.56 142.129 114.59 142.344C114.916 142.606 115.113 142.962 115.203 143.338C115.247 143.519 115.266 143.709 115.267 143.906L115.374 143.427L115.418 143.229L115.541 142.678L116.048 142.429C116.979 141.972 117.839 141.216 118.716 139.861L119.195 139.121L120.041 139.375L120.26 139.44L121.393 139.78L121.046 140.911L120.666 142.145C120.895 142.139 121.115 142.133 121.305 142.133H122.707L123.522 139.481H122.209L122.614 137.997L122.68 137.756L122.852 137.129L123.473 136.94L126.369 136.062L126.985 135.876L127.475 136.295ZM142.174 141.936C143.013 141.936 144.108 142.085 145.077 142.416L146.152 142.783L145.821 143.87L143.92 150.117L144.91 150.777L145.888 151.429L145.236 152.407C144.559 153.424 143.876 154.212 143.213 154.76C142.576 155.285 141.826 155.694 141.033 155.694C140.706 155.694 140.278 155.633 139.889 155.358C139.585 155.144 139.393 154.861 139.278 154.566C138.399 155.273 137.452 155.694 136.536 155.694C135.701 155.694 134.947 155.341 134.443 154.647C133.976 154.004 133.803 153.177 133.803 152.325C133.803 149.952 134.793 147.407 136.254 145.458C137.694 143.537 139.799 141.936 142.174 141.936ZM105.953 144.978C105.758 145.61 105.514 146.224 105.22 147.001C104.874 147.916 104.421 149.163 103.815 151.153L103.814 151.157C103.652 151.684 103.569 152.077 103.536 152.362C103.532 152.399 103.53 152.433 103.527 152.465C103.746 152.385 104.02 152.223 104.346 151.934C104.85 151.486 105.361 150.832 105.823 150.066C106.282 149.307 106.667 148.482 106.935 147.726C107.184 147.021 107.305 146.446 107.325 146.072C107.289 146.052 107.239 146.024 107.168 145.988C107.019 145.914 106.642 145.741 106.342 145.467C106.19 145.328 106.058 145.164 105.953 144.978ZM141.668 144.651C141.478 144.723 141.217 144.871 140.891 145.153C140.393 145.585 139.865 146.227 139.381 147.01C138.398 148.598 137.733 150.528 137.733 151.996C137.733 152.065 137.737 152.128 137.739 152.185C137.751 152.177 137.764 152.171 137.776 152.162C138.053 151.967 138.413 151.628 138.819 151.098C139.632 150.038 140.564 148.299 141.356 145.688L141.668 144.651ZM117.688 151.478C117.829 151.313 117.981 151.127 118.136 150.913L118.798 149.995L119.74 150.623L120.004 150.799L120.034 150.819L121.849 144.923H121.173C120.902 144.923 120.478 144.898 120.093 144.877C119.999 144.872 119.904 144.868 119.812 144.863L117.688 151.478ZM115.147 144.856C115.096 145.079 115.03 145.306 114.955 145.536L114.837 145.88L113.299 150.13L113.984 150.629L114.022 150.656L115.895 144.856H115.147Z" fill="#6E6D97" stroke="white" stroke-width="2.35058"/>
<path d="M18.2815 183.328C19.9113 183.14 20.7261 182.67 21.1336 181.385L26.7123 163.144C27.1197 161.859 26.5556 161.389 25.0512 161.201L25.1452 160.856H32.6044C36.8668 160.856 38.9666 163.05 37.9637 166.184C37.3996 168.002 35.3937 170.447 31.2881 171.042C35.8012 171.575 36.9921 174.051 36.0205 177.279C34.8923 180.977 31.4448 183.673 25.6153 183.673H18.1875L18.2815 183.328ZM23.5155 181.353C23.1394 182.607 23.6095 183.202 25.2392 183.202H26.0854C29.6583 183.202 32.291 181.04 33.3879 177.342C34.5789 173.424 33.2312 171.262 28.5614 171.262H26.5869L23.5155 181.353ZM26.7436 170.791H29.6583C32.6044 170.791 34.5475 168.911 35.3624 166.278C36.3966 162.893 34.8296 161.326 32.3536 161.326H31.9462C30.3165 161.326 29.4703 161.859 29.0628 163.176L26.7436 170.791Z" fill="#0D0B36"/>
<path d="M39.1005 183.986C37.9723 183.986 37.2514 183.265 38.2543 180.225L41.0437 171.857C42.266 168.19 40.793 168.692 38.5051 171.888L38.1603 171.638C39.9467 168.911 41.6392 167.689 42.8301 167.689C43.9271 167.689 44.2718 168.504 43.4256 171.073L40.7616 179.097C39.9154 181.698 40.1661 182.262 40.8243 182.262C42.4854 182.262 45.5881 178.846 49.8819 168.002H52.013L48.2208 180.319C47.4059 182.92 48.3148 183.391 50.9161 179.786L51.2609 180.037C49.4744 182.764 47.782 183.986 46.6537 183.986C45.5881 183.986 45.212 183.265 45.9015 181.103L48.4715 172.641C44.5225 181.197 41.5451 183.986 39.1005 183.986Z" fill="#0D0B36"/>
<path d="M54.2659 183.986C53.2003 183.986 52.7616 183.202 53.6704 180.601L56.8359 171.763C58.0895 168.284 56.7105 168.535 54.3286 171.888L53.9839 171.638C55.7703 168.88 57.5254 167.689 58.6537 167.689C59.7193 167.689 60.158 168.472 59.2178 171.073L56.021 179.912C54.7987 183.359 56.2091 183.108 58.591 179.786L58.9357 180.037C57.1493 182.795 55.3942 183.986 54.2659 183.986ZM58.7477 163.27C59.0298 162.329 59.9073 161.608 60.6908 161.608C61.4744 161.608 61.9445 162.392 61.6624 163.332C61.4117 164.272 60.5655 164.993 59.7506 164.993C58.9984 164.993 58.497 164.21 58.7477 163.27Z" fill="#0D0B36"/>
<path d="M61.6923 183.986C60.6267 183.986 60.3133 183.234 61.0968 180.601L66.7382 162.173C67.0203 161.232 66.6442 160.825 65.2025 160.825L65.2965 160.48L69.4335 159.227L69.6529 159.415L63.4474 179.818C62.2878 183.579 63.6668 182.92 65.9547 179.786L66.2994 180.037C64.513 182.764 62.8206 183.986 61.6923 183.986Z" fill="#0D0B36"/>
<path d="M69.4213 183.986C67.9482 183.986 67.1961 182.983 67.1961 180.977C67.1961 174.928 72.2106 167.689 77.4759 167.689C77.9774 167.689 78.5729 167.72 79.1683 167.814L80.8921 162.173C81.1742 161.232 80.7667 160.825 79.3564 160.825L79.4504 160.48L83.5561 159.227L83.8068 159.415L77.5699 179.818C76.4417 183.579 77.8207 182.92 80.0772 179.786L80.4533 180.037C78.6355 182.764 76.9745 183.986 75.8462 183.986C74.7806 183.986 74.4358 183.234 75.2507 180.601L76.2223 177.467C73.903 182.137 71.2077 183.986 69.4213 183.986ZM69.484 180.538C69.484 182.043 69.9227 182.544 70.7063 182.544C72.242 182.544 75.5328 179.724 77.9147 171.857L78.8549 168.817C78.3848 168.347 77.8207 168.127 77.1312 168.127C73.8717 168.127 69.484 175.367 69.484 180.538Z" fill="#0D0B36"/>
<path d="M84.8465 183.986C81.9944 183.986 80.7721 181.009 82.2451 176.151C83.5928 171.7 86.6642 167.689 90.4565 167.689C92.8698 167.689 94.0607 169.13 93.4339 171.199C92.7131 173.549 89.861 175.681 84.533 175.775C83.1854 180.1 84.0629 182.638 85.9747 182.638C87.3851 182.638 89.5476 181.635 91.24 178.971L91.5848 179.222C89.6416 182.45 86.7896 183.986 84.8465 183.986ZM84.6898 175.305C88.1059 175.179 90.5819 173.706 91.3967 171.262C92.0235 169.412 91.5221 168.127 90.1431 168.127C88.294 168.127 86.1941 170.697 84.6898 175.305Z" fill="#0D0B36"/>
<path d="M97.7 171.356C98.5775 168.535 97.4492 168.504 95.0046 171.888L94.6599 171.638C96.4463 168.911 98.1387 167.689 99.267 167.689C100.395 167.689 100.677 168.472 100.019 170.572L98.5462 175.399C101.085 169.412 102.965 167.689 104.971 167.689C106.099 167.689 106.632 168.378 106.381 169.162C106.193 169.851 105.598 170.321 104.908 170.321C104.062 170.321 103.905 169.569 103.091 169.569C101.931 169.569 99.9252 171.982 96.0389 183.673H93.9077L97.7 171.356Z" fill="#0D0B36"/>
<path d="M107.988 166.874C109.21 166.184 110.558 164.492 110.965 163.332C110.746 163.426 110.527 163.458 110.307 163.458C109.555 163.458 109.179 162.705 109.461 161.577C109.774 160.418 110.715 159.728 111.435 159.759C112.438 159.791 112.814 160.762 112.438 162.11C111.937 163.99 110.15 166.184 108.082 167.156L107.988 166.874Z" fill="#0D0B36"/>
<path d="M112.282 183.986C109.367 183.986 107.863 182.388 108.051 180.883C108.082 179.912 108.74 179.253 109.461 179.253C111.435 179.253 109.68 183.547 112.72 183.547C114.037 183.547 115.604 182.544 116.074 180.883C117.202 176.746 110.025 175.085 111.341 170.854C111.812 169.318 113.473 167.689 115.98 167.689C118.424 167.689 119.709 169.099 119.584 170.415C119.553 171.356 118.895 172.014 118.174 172.014C116.011 172.014 118.33 168.127 115.823 168.127C114.758 168.127 113.504 168.88 113.159 170.227C112.062 174.145 119.208 175.618 117.86 180.006C117.265 182.043 115.165 183.986 112.282 183.986Z" fill="#0D0B36"/>
<path d="M142.949 183.986C141.883 183.986 141.444 183.202 142.385 180.601L145.237 172.578C146.24 169.851 146.146 169.412 145.55 169.412C143.952 169.412 140.536 172.985 136.336 183.673H134.142L138.122 172.578C139.094 169.851 139.031 169.412 138.436 169.412C136.681 169.412 133.233 173.017 129.033 183.673H126.902L130.663 171.356C131.509 168.629 130.444 168.409 127.968 171.888L127.623 171.638C129.409 168.911 131.102 167.689 132.23 167.689C133.358 167.689 133.672 168.472 133.014 170.572L130.412 179.097C134.957 169.506 138.404 167.689 140.222 167.689C141.382 167.689 141.727 168.409 140.63 171.45L138.248 177.969C142.479 169.35 145.55 167.689 147.274 167.689C148.433 167.689 148.872 168.409 147.775 171.45L144.735 179.818C143.482 183.296 144.829 183.171 147.243 179.786L147.619 180.037C145.801 182.764 144.14 183.986 142.949 183.986Z" fill="#0D0B36"/>
<path d="M150.738 183.986C149.672 183.986 149.233 183.202 150.142 180.601L153.308 171.763C154.561 168.284 153.182 168.535 150.8 171.888L150.455 171.638C152.242 168.88 153.997 167.689 155.125 167.689C156.191 167.689 156.63 168.472 155.689 171.073L152.493 179.912C151.27 183.359 152.681 183.108 155.063 179.786L155.407 180.037C153.621 182.795 151.866 183.986 150.738 183.986ZM155.219 163.27C155.501 162.329 156.379 161.608 157.162 161.608C157.946 161.608 158.416 162.392 158.134 163.332C157.883 164.272 157.037 164.993 156.222 164.993C155.47 164.993 154.969 164.21 155.219 163.27Z" fill="#0D0B36"/>
<path d="M161.423 171.356C162.27 168.598 161.141 168.472 158.697 171.888L158.352 171.638C160.138 168.911 161.831 167.689 162.959 167.689C164.087 167.689 164.401 168.472 163.743 170.572L161.173 178.971C165.717 169.506 169.259 167.689 171.076 167.689C172.205 167.689 172.8 168.409 171.703 171.45L168.663 179.818C167.41 183.296 168.726 183.171 171.17 179.786L171.515 180.037C169.729 182.764 168.036 183.986 166.845 183.986C165.78 183.986 165.341 183.202 166.281 180.601L169.165 172.578C170.136 169.851 169.917 169.412 169.321 169.412C167.598 169.412 163.962 173.017 159.762 183.673H157.631L161.423 171.356Z" fill="#0D0B36"/>
<path d="M174.952 183.986C173.479 183.986 172.727 182.983 172.727 180.977C172.727 174.928 177.742 167.689 183.007 167.689C183.509 167.689 184.104 167.72 184.699 167.814L186.423 162.173C186.705 161.232 186.298 160.825 184.888 160.825L184.982 160.48L189.087 159.227L189.338 159.415L183.101 179.818C181.973 183.579 183.352 182.92 185.608 179.786L185.984 180.037C184.167 182.764 182.506 183.986 181.377 183.986C180.312 183.986 179.967 183.234 180.782 180.601L181.753 177.467C179.434 182.137 176.739 183.986 174.952 183.986ZM175.015 180.538C175.015 182.043 175.454 182.544 176.237 182.544C177.773 182.544 181.064 179.724 183.446 171.857L184.386 168.817C183.916 168.347 183.352 168.127 182.662 168.127C179.403 168.127 175.015 175.367 175.015 180.538Z" fill="#0D0B36"/>
<path d="M191.369 183.986C188.454 183.986 186.95 182.388 187.138 180.883C187.169 179.912 187.827 179.253 188.548 179.253C190.523 179.253 188.767 183.547 191.808 183.547C193.124 183.547 194.691 182.544 195.161 180.883C196.289 176.746 189.112 175.085 190.429 170.854C190.899 169.318 192.56 167.689 195.067 167.689C197.512 167.689 198.797 169.099 198.671 170.415C198.64 171.356 197.982 172.014 197.261 172.014C195.098 172.014 197.418 168.127 194.91 168.127C193.845 168.127 192.591 168.88 192.246 170.227C191.149 174.145 198.295 175.618 196.947 180.006C196.352 182.043 194.252 183.986 191.369 183.986Z" fill="#0D0B36"/>
<path d="M202.222 183.986C199.37 183.986 198.148 181.009 199.621 176.151C200.969 171.7 204.04 167.689 207.832 167.689C210.246 167.689 211.437 169.13 210.81 171.199C210.089 173.549 207.237 175.681 201.909 175.775C200.561 180.1 201.439 182.638 203.351 182.638C204.761 182.638 206.923 181.635 208.616 178.971L208.961 179.222C207.018 182.45 204.165 183.986 202.222 183.986ZM202.066 175.305C205.482 175.179 207.958 173.706 208.773 171.262C209.399 169.412 208.898 168.127 207.519 168.127C205.67 168.127 203.57 170.697 202.066 175.305Z" fill="#0D0B36"/>
<path d="M212.416 183.986C211.037 183.986 210.222 182.952 211.069 180.35L214.892 168.504H213.482L213.544 168.221C215.206 167.407 216.647 166.09 218.026 163.959L218.34 164.053L217.117 168.033C218.026 168.033 219.437 167.971 220.314 167.971L220.126 168.598C219.468 168.598 217.964 168.472 216.961 168.472V168.504L213.419 179.536C212.134 183.516 214.547 183.422 217.149 179.818L217.525 180.068C215.582 182.858 213.858 183.986 212.416 183.986Z" fill="#0D0B36"/>
</svg>
